<?xml version="1.0" encoding="UTF-8" standalone="no"?>
<svg
   xmlns:dc="http://purl.org/dc/elements/1.1/"
   xmlns:cc="http://creativecommons.org/ns#"
   xmlns:rdf="http://www.w3.org/1999/02/22-rdf-syntax-ns#"
   xmlns:svg="http://www.w3.org/2000/svg"
   xmlns="http://www.w3.org/2000/svg"
   xmlns:sodipodi="http://sodipodi.sourceforge.net/DTD/sodipodi-0.dtd"
   xmlns:inkscape="http://www.inkscape.org/namespaces/inkscape"
   id="Layer_1"
   data-name="Layer 1"
   viewBox="0 0 555.66 958.3"
   version="1.1"
   sodipodi:docname="16.svg"
   inkscape:version="0.92.3 (2405546, 2018-03-11)">
  <metadata
     id="metadata4153">
    <rdf:RDF>
      <cc:Work
         rdf:about="">
        <dc:format>image/svg+xml</dc:format>
        <dc:type
           rdf:resource="http://purl.org/dc/dcmitype/StillImage" />
        <dc:title>15</dc:title>
      </cc:Work>
    </rdf:RDF>
  </metadata>
  <sodipodi:namedview
     pagecolor="#ffffff"
     bordercolor="#666666"
     borderopacity="1"
     objecttolerance="10"
     gridtolerance="10"
     guidetolerance="10"
     inkscape:pageopacity="0"
     inkscape:pageshadow="2"
     inkscape:window-width="1366"
     inkscape:window-height="715"
     id="namedview4151"
     showgrid="false"
     inkscape:zoom="0.24626944"
     inkscape:cx="277.82999"
     inkscape:cy="479.14999"
     inkscape:window-x="-8"
     inkscape:window-y="-8"
     inkscape:window-maximized="1"
     inkscape:current-layer="Layer_1" />
  <defs
     id="defs4074">
    <style
       id="style4072">.cls-1{fill:#bebebe;}.cls-2{fill:#3f3f3f;}.cls-3{fill:#f7ee1f;}.cls-4{fill:#fbb132;}.cls-5{fill:#f5ec20;}.cls-6{fill:#f6ed20;}.cls-7{fill:#f1e923;}.cls-8{fill:#e3db2d;}.cls-9{fill:#040705;}.cls-10{fill:#040605;}.cls-11{fill:#010101;}.cls-12{fill:#020202;}.cls-13{fill:#fefefe;}.cls-14{fill:#46bee4;}.cls-15{fill:#161617;}.cls-16{fill:#191919;}.cls-17{fill:#161616;}.cls-18{fill:#435c64;}.cls-19{fill:#5499b2;}.cls-20{fill:#171616;}.cls-21{fill:#4d8495;}.cls-22{fill:#161717;}.cls-23{fill:#fab433;}.cls-24{fill:#f9b433;}</style>
  </defs>
  <title
     id="title4076">15</title>
  <path
     d="M828,911.13c-1.74-4.44-2-9.39-4.49-13.54a35.92,35.92,0,0,1-4.67-13.41C816.48,869.85,807,861,794,856c-19.79-7.63-40.2-7.23-60.7-3.59-15,2.66-28.93,8.48-42.74,14.67-16,7.19-32,14.36-49.86,15.84-6.28.52-12.57,1-18.74-.93s-8.75-5.56-8.42-12.1a34,34,0,0,1,2.88-11.18c4.46-11,11.13-20.78,17-31a4.32,4.32,0,0,1,2-1.64c6.95-3.57,10.74-9.34,11.49-17a5.19,5.19,0,0,1,3.09-4.5c15-8.44,26.85-20,34.36-35.7a86.59,86.59,0,0,0,6-18.45c1.5.36,2.26,1.36,3.19,2.09,8.7,6.83,17.62,13.35,28.11,17.23,11.32,4.19,19.47,1.76,26.8-7.87a3.18,3.18,0,0,1,3.24-1.52c7.93.66,11.75-1.75,14.74-9.27a4.74,4.74,0,0,1,2.59-2.68c4.84-2.44,5.56-6.27,1.81-10.06-1.22-1.23-1.11-1.86-.23-3.17,1.85-2.77,3.52-6.93.69-8.72-4.1-2.59-6.89-6.36-10.67-9.08-1.11-.79-1.69-1.15-1.67-2.62.06-5.11-2.52-7.88-7.57-8a10.4,10.4,0,0,1-8.8-4.75c-9.46-13.15-16.82-27.47-23.44-42.17-4.93-11-9.69-22-17.61-31.32-5.83-6.84-12.5-12.52-21.52-14.63-1.58-.36-1.79-1.29-2.07-2.51-2-9-1.13-18.28-1.91-27.41-.13-1.54,1-2.08,2-2.75a254.56,254.56,0,0,1,35.29-19.48c13.63-6.16,25.89-14.33,35.84-25.63,7.65-8.69,13-18.49,12.28-30.52-.6-10.5-5.27-19.26-12.36-26.81a5.24,5.24,0,0,1-1.56-4.7c.87-7.14,2.29-14.18,3.79-21.2,4-18.9,8.87-37.58,14.14-56.17,5.94-21,8.5-42.63,10.82-64.29a122.66,122.66,0,0,0-3.87-46.25c-8.41-30.28-26.05-54.39-50.3-73.73-41.33-33-89.45-48.23-141.4-53-20-1.83-40-.32-59.69,3.41-2.31.43-2.78-.1-3-2.23-1.23-11-1.8-22-.65-33.08,1.76-17,6.76-32.82,17.58-46.41a8.82,8.82,0,0,0,1-1.3,1.6,1.6,0,0,0-.46-2.32,1.45,1.45,0,0,0-2.07.3,37.1,37.1,0,0,0-2.55,3c-8.23,11-13,23.44-15.5,36.89-2.64,14.5-2.44,29-.53,43.58.29,2.16-.34,2.89-2.3,3.29A191.21,191.21,0,0,0,488,171.4c-1.82.63-2.41.1-2.95-1.56C474.87,139,467.2,107.65,466.28,75c-.5-17.72,1.15-35.13,9.34-51.29.55-1.08.94-2.17-.32-2.87-1.51-.84-2.2.39-2.77,1.49a68.13,68.13,0,0,0-4.85,11.93c-6.27,21-5.62,42.38-3,63.79a358.47,358.47,0,0,0,17.23,72.65c.65,1.93.31,2.66-1.6,3.32a234.25,234.25,0,0,0-36.14,16.24c-2,1.12-2.84.89-4.07-1-10.15-15.56-19.34-31.62-26.47-48.81-5.13-12.38-9.37-25-9.6-38.63,0-1.15-.05-2.39-1.59-2.37s-1.75,1.31-1.73,2.61a82,82,0,0,0,3.61,22.16c7.05,24,19.06,45.5,32.69,66.21,1.57,2.39,1.21,3.21-1.11,4.59-23.31,13.86-43.73,31.09-60.37,52.61a185.15,185.15,0,0,0-38.11,93.88c-2.62,22.83-1.87,45.44,3.91,67.77,8.92,34.53,27.7,63,53.67,87,30.26,27.88,65.52,47.27,104.39,60.31,2.12.71,3.18,1.61,3.45,4a64.55,64.55,0,0,0,5,18.45c8.08,18.57,22.2,28.1,42.49,28,19-.14,37.68-2.24,55.66-8.8,1.39-.51,2.82-1.42,4.38-.38,7.66,5.07,15.16,10.31,21,17.58,1.71,2.13,2.1,3.22-1.27,3.92-3.09.64-5.33,3-7.22,5.53a35.46,35.46,0,0,0-4.65,8.74c-4.41,11.69-6,24-7.25,36.28-1,10.14-2.59,20.14-5.93,29.82-.84,2.43-1.93,3.43-4.69,3.38a75.42,75.42,0,0,0-23.54,3.12,45.22,45.22,0,0,0-22.71,15c-3.26-17.06-10.21-31.67-21.89-44.23-10.51-11.31-19-24.11-22.87-39.41-.26-1-.73-1.88-1.92-2-1.39-.13-1.92.85-2.36,1.9-6,14.34-10.54,29-11,44.75-.64,20.25,5.78,37.57,21.15,51.14a73.65,73.65,0,0,0,27,15.08c1.69.54,2.48,1.19,2.34,3.19a66.94,66.94,0,0,0,3.25,26.79c.32,1,1.29,2-.63,2.87-9.83,4.51-12.93,18.51-6,27.59,1,1.37.68,2.3,0,3.55a119.83,119.83,0,0,1-23.42,31.12c-10.74,10-23,17.17-38,18.46A128.16,128.16,0,0,1,438,858.31c-23-5.65-46.07-10.38-69.84-11-15.61-.41-31.17-.67-46.43,3.4-18.6,5-33.88,14.54-42.74,32.26-7.29,14.56-9.52,29.59-1.89,44.87,2.46,4.91,5.59,9.33,10.8,11.68a3.25,3.25,0,0,1,1.74,2.19c5.08,13.5,14.82,22.51,27.56,28.58,11.88,5.66,24.58,7.61,37.6,8,2.24.48,4.52.1,6.79.22l.6,0a142.94,142.94,0,0,0,16.95-.51,245.42,245.42,0,0,0,37.17-6.68,475.28,475.28,0,0,0,74-25.35,62.12,62.12,0,0,0,29.84-26.17c3.11-5.27,5.35-10.92,8.07-16.35,8.17-16.32,16.22-32.71,24.77-48.84,4.46-8.39,8.95-16.78,13.56-25.09,1-1.84,2.24-3.22,4.6-3.2a23.07,23.07,0,0,0,19-9.18c1.74-2.16,3.87-1.87,5.26.64a32.1,32.1,0,0,0,2.43,4.32c1.27,1.64,1.1,3.22.13,4.93-8.7,15.4-16.71,31.21-27.11,45.59a155.51,155.51,0,0,0-8.89,14c-5.51,9.65-5.79,19.4-1.15,29.51,4.71,10.32,11.83,18.57,20.66,25.5,13.43,10.56,28.82,17.28,45,22.25,31.92,9.82,64.71,14.28,98.07,14.6h4a159.27,159.27,0,0,0,29.58-2.11c16-2.9,31.75-6.83,45.81-15.57,12.93-8,22.33-18.57,24.12-34.43v-2.66a6.76,6.76,0,0,1,0-4.65ZM703.09,702.22c6.5,4.89,11.68,11.06,16.95,17.12a15.38,15.38,0,0,0,1.72,2c5.2,4.09,4.13,9.07,2.22,14.3-.62,1.68-1.12,1.52-2.21.57a69.16,69.16,0,0,1-10-11c-2-2.66-3.76-5.46-5.79-8.08C702.6,712.73,700.4,708.12,703.09,702.22Z"
     transform="translate(-272.34 -20.56)"
     id="path4078" />
  <path
     class="cls-1"
     d="M362.16,978.34a1.14,1.14,0,0,1,0,.52h-7.3a5.4,5.4,0,0,0,0-.56Z"
     transform="translate(-272.34 -20.56)"
     id="path4080" />
  <path
     class="cls-2"
     d="M828,923.75a3.8,3.8,0,0,1,0-4.65Z"
     transform="translate(-272.34 -20.56)"
     id="path4082" />
  <path
     class="cls-1"
     d="M728.49,978.32a2.41,2.41,0,0,1,0,.54h-4a2.41,2.41,0,0,1,0-.54Z"
     transform="translate(-272.34 -20.56)"
     id="path4084" />
  <path
     class="cls-4"
     d="M288.39,936.28c-7-5.09-10.31-11.8-11.69-19.27-3.23-17.48,2.48-32.51,14.2-45.3,10.6-11.57,24.52-17,39.64-19.58,18.69-3.2,37.42-1.89,56.15-.26,19.76,1.72,38.76,7.36,58.11,11.19,14.4,2.85,29,4,43.42.73,17.48-4,30.48-15,41.61-28.48a119.18,119.18,0,0,0,13.4-20.1c1-1.9,1.62-2.12,3.28-.62a41.09,41.09,0,0,0,15.33,9c2.77.87,2.31,1.87,1.23,3.81q-21.12,37.89-40,77c-2.31,4.77-4.39,9.64-7.09,14.22-6.92,11.7-17,19.21-29.46,24.51-32.92,14.07-66.69,25.14-102.22,30.17-17.34,2.45-34.75,3.16-52-1.07-10.66-2.62-20.33-7.16-28.43-14.8-14.2-13.41-15.77-28.52-7.78-46.61C302.21,897,314.18,890.1,328.05,886c1.37-.4,2.8-.61,4.18-1,1-.29,2.39-.4,2.12-2-.32-1.87-1.83-1.35-2.91-1.1-7.57,1.71-14.85,4.22-21.4,8.5-14.36,9.39-21.17,22.92-21.64,39.87C288.35,932.08,288.39,933.84,288.39,936.28Z"
     transform="translate(-272.34 -20.56)"
     id="path4088" />
  <path
     class="cls-4"
     d="M629.29,828.28c-4.61,8.06-9.56,15.52-13.41,23.6-2.81,5.89-5.39,11.9-5.6,18.56-.23,7.62,3.45,12.63,10.74,14.74,5.82,1.68,11.77,1.61,17.75,1.2,17.16-1.15,32.85-7.21,48.31-14.16,14.9-6.7,29.8-13.48,46-16.46,19.92-3.67,39.81-4.17,59.14,3,11.78,4.4,20.41,12.2,23.42,25,.2.85.27,1.72.51,3.31a44.44,44.44,0,0,0-17.77-9.23c-13.25-3.44-26.5-2.43-39.76,0-1.15.21-1.92.71-1.73,1.93.24,1.48,1.22,1.45,2.5,1.21,11.12-2.11,22.25-3.06,33.56-1.11,19.59,3.37,31.24,17,31.76,36.82.56,21-10.55,34.33-28.11,43.45-13.38,7-27.88,10.21-42.62,12.65-23.29,3.87-46.45,1.61-69.61-1.16-21-2.51-41.64-6.46-61.65-13.37-16.51-5.71-32.12-13.11-44.94-25.32-8.33-8-14.46-17.21-16.18-29a17.88,17.88,0,0,1,1.24-9.07,68,68,0,0,1,8.7-16c11.53-15.87,20.82-33.07,30.08-50.29,1.25-2.33,2.16-3,4.89-1.88C613.67,829.72,621.21,829.31,629.29,828.28Z"
     transform="translate(-272.34 -20.56)"
     id="path4090" />
  <path
     class="cls-3"
     d="M506.88,641.56c5.68,16.2,14.88,29.05,25.69,40.89,10.64,11.64,16,25.72,18.58,41a5.68,5.68,0,0,1-.66,3.82,47.21,47.21,0,0,0-5.21,16.31c-.24,1.68-.48,2.29-2.39,1.61-22.79-8.14-39.19-22.38-44.32-47-3.29-15.81-.36-31.18,4.55-46.26C504.17,648.71,505.43,645.56,506.88,641.56Z"
     transform="translate(-272.34 -20.56)"
     id="path4094" />
  <path
     class="cls-3"
     d="M679.4,617.16c6.43,1.58,11,4.76,15.08,8.65a72.46,72.46,0,0,1,16,23c8.8,19.26,17.4,38.61,30.07,56-2.38.78-4.56,1.36-6.63,2.21s-4,2.36-3.53,4.67c.46,2.52-.51,4.08-1.93,5.81a28,28,0,0,0-2.29,4c-4.76-5.45-9.21-11-14.33-15.95-1.51-1.46-2.9-3.21-4.7-4.16-3.87-2.05-4.42-5-4.29-9.13.45-15-1.24-29.81-7.72-43.61-3.56-7.58-8.48-14.47-11.84-22.17C682.1,623.59,680.92,620.75,679.4,617.16Z"
     transform="translate(-272.34 -20.56)"
     id="path4096" />
  <path
     class="cls-3"
     d="M540.69,797.7c.18-5.54,2.22-10.06,7.08-13.07,1.26-.78,2.17-1,3.05.72,7.12,14.19,19,22.68,33.79,27.29,3.1,1,2.49,2.07.89,3.6-5.19,5-11.41,7.39-18.48,5.64a42,42,0,0,1-21.82-13.09C542.44,805.65,540.58,802.07,540.69,797.7Z"
     transform="translate(-272.34 -20.56)"
     id="path4098" />
  <path
     class="cls-3"
     d="M643.58,807.9A16.71,16.71,0,0,1,631.74,824a36,36,0,0,1-25.29-.61,11,11,0,0,1-7.07-7.58C615,817.61,629.55,814.25,643.58,807.9Z"
     transform="translate(-272.34 -20.56)"
     id="path4100" />
  <path
     class="cls-5"
     d="M756.56,738.39c-4.57-.07-5.6-1.91-3.34-5.95s9.48-6.88,13.86-5.42c2.09.7,2.65,2,2,4.1C767.52,735.71,762.8,738.5,756.56,738.39Z"
     transform="translate(-272.34 -20.56)"
     id="path4102" />
  <path
     class="cls-6"
     d="M742.18,720c.41-6,4.56-10.42,9.31-10,4.13.38,5.81,3.7,3.35,7a16.14,16.14,0,0,1-8.76,6.16C743,724,742,723.13,742.18,720Z"
     transform="translate(-272.34 -20.56)"
     id="path4104" />
  <path
     class="cls-7"
     d="M763.56,749.3c-2.21,6-5.4,8.44-10,8-1.5-.13-2.32-.45-1.38-2.15a10.93,10.93,0,0,0,1.19-3c.46-2.26,1.8-3,4-2.86C759.34,749.4,761.29,749.3,763.56,749.3Z"
     transform="translate(-272.34 -20.56)"
     id="path4106" />
  <path
     class="cls-8"
     d="M744.53,708.16c-1.58,4.11-5.14,2.71-7.76,3.52-1,.3-2.64,1.71-3.12.39-.56-1.57,1.4-2.24,2.7-2.69A19.26,19.26,0,0,1,744.53,708.16Z"
     transform="translate(-272.34 -20.56)"
     id="path4108" />
  <path
     class="cls-9"
     d="M463.41,397.38a94.62,94.62,0,0,1-28.79,1.86c-17.7-1.67-33-8.36-45.45-21.31-.9-.93-1.91-2.08-.94-3.1,1.14-1.22,2.34-.16,3.32.83,19.71,19.88,43.7,23.75,70.07,18.78a3.25,3.25,0,0,0,3.06-2.83,24,24,0,0,1,1.9-6c1.05-2.06.29-2.48-1.54-3C451.13,378.3,438,372.4,426.4,363.44,416.76,356,409.18,347,405.73,335c-.37-1.31-1.4-3,.73-3.56,1.88-.51,1.92,1.27,2.28,2.51,3.23,11.07,10.18,19.5,19.07,26.45,11.72,9.18,25.05,15.18,39.23,19.45,1,.3,2,.91,2.9-.45,1.87-2.93,4.65-4.91,7.94-6.84a74.64,74.64,0,0,1-21.51-19.39,80.08,80.08,0,0,1-14.44-33.45c-.27-1.42-1.42-3.71,1-4.09,2.2-.34,1.84,2.09,2.11,3.44,3.94,19.67,13.42,35.84,29.87,47.64,3.66,2.63,7.25,4.58,12.33,4.38,8.71-.33,16.43,3.63,23.9,7.9,9.63,5.51,16.55,13.88,23.64,22a133.29,133.29,0,0,1,31.3,67c2.61,15.81,2.09,31.74,0,47.6-.35,2.69-1.49,5.52,3.07,5.36a1.41,1.41,0,0,1,1.41,1.83c-.28,1.57-1.52,1.43-2.6,1.24a82.7,82.7,0,0,0-16.86-.63,42.58,42.58,0,0,0-13.56,2.78,17.77,17.77,0,0,0-5.13,3c-1.36,1.15-2.14,2.22-.34,3.62a3.35,3.35,0,0,1,.43.49c.86,1,1.64,2.24.56,3.17s-2.15,0-3-1c-3.93-4.34-8-8.59-11.89-12.93C500.88,503.27,485.7,482.57,474.8,459c-8.16-17.68-13.19-36.06-11.88-55.78C463,401.33,463.23,399.49,463.41,397.38Z"
     transform="translate(-272.34 -20.56)"
     id="path4110" />
  <path
     class="cls-10"
     d="M668.5,486c-10.45-3.75-16.85-11.67-22.26-20.56-9.6-15.78-14.78-33.22-18.65-51.08-3.31-15.28-5.21-30.74-4.63-46.4.36-9.45,1.94-18.67,6.42-27.19,1.4-2.65,2.74-5.58,5.11-7.27,5.49-3.89,6.45-9.72,7.49-15.54,3.47-19.54,3.07-38.94-2.35-58.13-.15-.53-.25-1.08-.39-1.61-.28-1.06-.25-2.08,1-2.43s1.75.51,2.08,1.57a109.83,109.83,0,0,1,3.28,14.2,132.51,132.51,0,0,1-1.91,53.61,11.54,11.54,0,0,0-.15,1.55c2.84-.45,5.45-1.29,8.18-1.27,1.63,0,2.1-1.51,2.81-2.52a122.79,122.79,0,0,0,20.8-51.48A141.69,141.69,0,0,0,676.92,251c0-1.26-.41-3.08,1.47-3.14,2.2-.08,1.69,1.91,1.68,3.23-.05,26.6-7.33,51-22.36,73-.37.54-.73,1.1-1.21,1.83,2.88,1.28,5.87,2.15,8.24,4.15,1.16,1,1.84,0,2.48-.62,18.37-18.52,32.13-39.34,32.92-66.57,0-1.3-.25-3,1.61-3.08,2-.05,1.55,1.77,1.55,3,0,16.31-5.5,30.94-14,44.61A126.08,126.08,0,0,1,670,331.28c-.79.77-1.84,1.23-.43,2.53,14.88,13.68,21.82,31.59,26.55,50.6,6.23,25.08,7.54,50.66,7.16,76.38-.06,4.41-.46,8.82-.56,13.24,0,1.6-.41,2.29-2.19,2.38-9.41.47-17.73,4.2-25.71,8.87-3.25,1.9-5.46,4.78-7.35,7.94-.58,1-1.18,2.11-2.53,1.41-1.57-.83-.84-2.08-.18-3.11C665.87,489.75,667.09,488.05,668.5,486Z"
     transform="translate(-272.34 -20.56)"
     id="path4112" />
  <path
     d="M658.69,516.39a38.51,38.51,0,0,1,.65-9.14c.29-1.21.7-2.22,2.12-1.93s1.29,1.43,1.06,2.62c-1.88,9.84.34,18.84,5.68,27.17.24.37.47.75.72,1.12.72,1.07,2,2.24.27,3.34s-2.34-.65-3-1.65c-1.56-2.39-3-4.9-4.47-7.46-5.21,10.36-10.83,20.54-23.58,22.89-11.93,2.19-22.26-2.51-32.45-9.07a50,50,0,0,1,.33,13.54c-.17,1.14,0,2.77-1.8,2.6s-1.36-1.66-1.32-2.86c.17-5.2.39-10.39-1.08-15.47-1.77-6.1-5-10.81-11.52-12.47-1-.26-2.07-.6-1.8-1.88.3-1.46,1.56-1.39,2.67-1.16,4.31.86,7.55,3.41,10.42,7.11,5.2-11.06,11.63-20.83,23.85-24C637.19,506.64,648.4,508.75,658.69,516.39Z"
     transform="translate(-272.34 -20.56)"
     id="path4114" />
  <path
     class="cls-11"
     d="M667.75,240.24c13.28,1.74,25.91,4.83,35.78,14.65a27.82,27.82,0,0,1,6.28,9.64c.36.92.61,2-.66,2.53a1.52,1.52,0,0,1-2.14-.93c-5.73-13.22-17.36-18-30.16-21.09-3.1-.73-6.31-1-9.44-1.58-1.17-.21-3.11.32-3-1.7C664.58,239.45,666.58,240.61,667.75,240.24Z"
     transform="translate(-272.34 -20.56)"
     id="path4116" />
  <path
     class="cls-12"
     d="M384.91,361.31c1.07-11.06,3.81-21.92,12.64-30.28a26.79,26.79,0,0,1,8.33-5.26c1-.41,1.73-.27,2.22.67a1.5,1.5,0,0,1-.79,2.21c-14.57,6.77-17.9,19.87-19.21,34.1-.11,1.2-.24,2.31-1.76,2.23-1.33-.07-1.43-1.14-1.43-2.19C384.92,362.45,384.91,362.12,384.91,361.31Z"
     transform="translate(-272.34 -20.56)"
     id="path4118" />
  <path
     class="cls-13"
     d="M551,433.27c-.88-1.33-1.74-2.68-2.64-4a39.35,39.35,0,0,0-18.88-15c-9.07-3.36-16.15-.14-19.76,8.86-2.46,6.15-3.06,12.64-3.16,19.19-.48,31.5,11.22,57.4,35.64,77.45l1.08.83c-5.4,1.59-10.49,3-14.32,7-1.16,1.22-1.69-.36-2.26-.94A284,284,0,0,1,492,483.26c-9.81-15.18-18-31.15-22.68-48.72-3.66-13.75-4.76-27.62-1.64-41.65a39.21,39.21,0,0,1,1.37-4.76c4.15-11.56,12.64-16.27,24.5-13.15a61.14,61.14,0,0,1,29.37,17.72c10.88,11.54,20.86,23.71,27.84,38.1l1,2Z"
     transform="translate(-272.34 -20.56)"
     id="path4120" />
  <path
     class="cls-14"
     d="M559.26,457.58a58.23,58.23,0,0,0-7.51-9.21c-7.88-7.44-18.56-4.87-21.67,5.45-3,9.89-1.39,19.68,1.68,29.27,4.21,13.14,10.91,25,18.86,36.23.29.41.19.61-.31.6-2,.22-3.58-.72-5.08-1.92-19.11-15.11-30.8-34.56-34.45-58.74-1.57-10.35-1.84-20.68.68-30.91,3-12.08,10-15.18,20.86-9.22a38.06,38.06,0,0,1,14.17,13.15c5,7.91,10.19,15.73,13.41,24.62C560.22,457.63,559.85,457.7,559.26,457.58Z"
     transform="translate(-272.34 -20.56)"
     id="path4122" />
  <ellipse
     class="cls-15"
     cx="293.87"
     cy="474.16"
     rx="0.19"
     ry="12.05"
     id="ellipse4124" />
  <path
     class="cls-16"
     d="M550.31,519.92c.1-.2.2-.4.31-.6h9.12v.6Z"
     transform="translate(-272.34 -20.56)"
     id="path4126" />
  <ellipse
     class="cls-17"
     cx="293.19"
     cy="458.61"
     rx="0.23"
     ry="3.24"
     id="ellipse4128" />
  <path
     class="cls-17"
     d="M565.64,510.62a3.19,3.19,0,0,1,0-3.14Z"
     transform="translate(-272.34 -20.56)"
     id="path4130" />
  <path
     class="cls-18"
     d="M561.08,459.51c.36.85,1.17,1.58.6,2.77a3.7,3.7,0,0,1-1.23-2.57C560.58,459.39,560.79,459.34,561.08,459.51Z"
     transform="translate(-272.34 -20.56)"
     id="path4132" />
  <path
     class="cls-19"
     d="M561.08,459.51l-.63.2a3.74,3.74,0,0,1-1.19-2.13c.21-.23.42-.46.64-.68C560.72,457.57,560.76,458.6,561.08,459.51Z"
     transform="translate(-272.34 -20.56)"
     id="path4134" />
  <path
     class="cls-20"
     d="M565.17,513.5c0,.59,0,1.67-.17,1.69-.82.1-.37-.62-.44-1a2.24,2.24,0,0,1,.18-.85Z"
     transform="translate(-272.34 -20.56)"
     id="path4136" />
  <path
     class="cls-13"
     d="M687.29,475.19a180,180,0,0,0,.75-27.92c-1-19.32-4.44-38-15.62-54.4a52.84,52.84,0,0,0-19.27-17.37c-6.6-3.46-13.65-1.49-17.52,4.91-3.57,5.92-4.73,12.56-5.5,19.29-.16,1.37.06,2.83-1.06,4.6a165.38,165.38,0,0,1-2.75-23.79c-.49-10.08-.32-20.11,2.58-29.9a39.39,39.39,0,0,1,7.18-14.07c7.52-9.14,18.5-10.25,27.9-3.09,8.57,6.53,14.66,14.95,19.34,24.48,7.63,15.56,11.4,32.24,13.86,49.26,3,20.42,3.3,41,2.71,61.55-.09,3.28-1.08,4.62-4.36,4.83A62,62,0,0,0,687.29,475.19Z"
     transform="translate(-272.34 -20.56)"
     id="path4138" />
  <path
     class="cls-14"
     d="M635,429c-3-14.26-3.38-28.46,1.33-42.45,1.21-3.57,2.85-7,6.72-8.59a10,10,0,0,1,9.17.7c12.83,7.14,20.72,18.34,25.65,31.77,6.56,17.89,8.16,36.47,6.88,55.38-.14,2-.1,4-.27,6-.43,5.11-.89,5.59-6.51,7a130.83,130.83,0,0,0-2.64-28.3c-2.19-10-5.45-19.58-12.68-27.27a28,28,0,0,0-10-6.89c-8.2-3.28-14.21-.12-16.09,8.5-.21,1-.26,2-.39,2.95C635.6,428,636.28,429.39,635,429Z"
     transform="translate(-272.34 -20.56)"
     id="path4140" />
  <path
     class="cls-21"
     d="M635,429c.38-.42.76-.83,1.15-1.24v4.43C635.2,431,634.7,430.1,635,429Z"
     transform="translate(-272.34 -20.56)"
     id="path4142" />
  <path
     class="cls-22"
     d="M636.73,436.34v2.21C636,437.79,636.21,437.12,636.73,436.34Z"
     transform="translate(-272.34 -20.56)"
     id="path4144" />
  <path
     class="cls-23"
     d="M621.24,539.23a81.18,81.18,0,0,1-14.86-1.62c-1.76-.34-2.43-1-1.59-2.89a47.29,47.29,0,0,1,11.89-16.92c11.61-10.28,31.8-6.33,39.83,1.23,1.6,1.51,1.78,2.6.32,4.4C647.5,534.86,635.05,539,621.24,539.23Z"
     transform="translate(-272.34 -20.56)"
     id="path4146" />
  <path
     class="cls-24"
     d="M608.13,541.58c19.4,2.41,37.29.21,51.23-15.53-3.23,9.69-7.75,18.89-17.63,22.84C629.37,553.82,618.39,548.6,608.13,541.58Z"
     transform="translate(-272.34 -20.56)"
     id="path4148" />
</svg>
